# xmcd CD database file
#
# Track frame offsets:
#	150
#	14307
#	27661
#	41730
#	55476
#	69758
#	82506
#	95628
#	105640
#	117736
#	132190
#	147403
#	159609
#	173949
#	187333
#	199521
#	214172
#	229457
#	242759
#	255534
#	271260
#	285768
#	299657
#	314895
#	326069
#
# Disc length: 4558 seconds
#
# Revision: 1
# Processed by: cddbd v1.5.2PL0 Copyright (c) Steve Scherf et al.
# Submitted via: CDex 1.51
#
DISCID=8411cc19
DTITLE=Muddy Waters - She Moves Me
DYEAR=2006
DGENRE=Blues
TTITLE0=Rollin' Stone
TTITLE1=Walking Blues
TTITLE2=You're Gonna Need My Help I Said
TTITLE3=Sad Letter Blues
TTITLE4=Early Morning Blues
TTITLE5=Appealing Blues (Hello Little Girl)
TTITLE6=Louisiana Blues
TTITLE7=Evans Shuffle
TTITLE8=Long Distance Call
TTITLE9=Too Young To Know
TTITLE10=Honey Bee
TTITLE11=Howling Wolf
TTITLE12=Country Boy
TTITLE13=She Moves Me
TTITLE14=My Fault
TTITLE15=Still A Fool
TTITLE16=They Call Me Muddy Waters
TTITLE17=All Night Long
TTITLE18=Stuff You Gotta Watch
TTITLE19=Lonesome Day
TTITLE20=Please Have Mercy
TTITLE21=Who's Gonna Be Your Sweet Man
TTITLE22=Standing Around Crying
TTITLE23=Gone To Main Street
TTITLE24=Iodine In My Coffee
EXTD=YEAR: 2006
EXTT0=
EXTT1=
EXTT2=
EXTT3=
EXTT4=
EXTT5=
EXTT6=
EXTT7=
EXTT8=
EXTT9=
EXTT10=
EXTT11=
EXTT12=
EXTT13=
EXTT14=
EXTT15=
EXTT16=
EXTT17=
EXTT18=
EXTT19=
EXTT20=
EXTT21=
EXTT22=
EXTT23=
EXTT24=
PLAYORDER=
